<?xml version="1.0" encoding="UTF-8"?>
<svg width="163px" height="47px" viewBox="0 0 163 47" version="1.1" xmlns="http://www.w3.org/2000/svg" xmlns:xlink="http://www.w3.org/1999/xlink">
    <!-- Generator: Sketch 49.3 (51167) - http://www.bohemiancoding.com/sketch -->
    <title>Logo / Full / Dark with Accent</title>
    <desc>Created with Sketch.</desc>
    <defs></defs>
    <g id="Logo-/-Full-/-Dark-with-Accent" stroke="none" stroke-width="1" fill="none" fill-rule="evenodd">
        <g id="logo" transform="translate(4.000000, 4.000000)">
            <path d="M9.29141208,3.56835307 L9.29141208,9.73950484 L13.4536284,9.73950484 L13.4536284,14.6932185 L9.29141208,14.6932185 L9.29141208,23.3412271 C9.29141208,24.208831 9.48760886,24.8245407 9.88000832,25.1883746 C10.2724078,25.5522085 10.8890262,25.7341227 11.7298822,25.7341227 C12.4866526,25.7341227 13.0612289,25.6781491 13.4536284,25.5662002 L13.4536284,30.1840689 C12.6408009,30.5199156 11.5897467,30.6878364 10.3004342,30.6878364 C8.28237986,30.6878364 6.68477747,30.1211036 5.50757911,28.9876211 C4.33038074,27.8541386 3.74179039,26.2938743 3.74179039,24.3067815 L3.74179039,14.6932185 L0,14.6932185 L0,9.73950484 L1.05106471,9.73950484 C2.08812042,9.73950484 2.87991459,9.43864671 3.42647097,8.83692142 C3.97302736,8.23519613 4.24630145,7.44456895 4.24630145,6.46501615 L4.24630145,3.56835307 L9.29141208,3.56835307 Z M17.069291,24.7685684 C17.069291,23.0053733 17.6438673,21.5920398 18.7930371,20.5285253 C19.9422069,19.4650108 21.4276969,18.7933276 23.2495515,18.5134553 L28.3367047,17.7578041 C29.3737604,17.617868 29.8922805,17.1280989 29.8922805,16.2884822 C29.8922805,15.50484 29.5909783,14.8611435 28.9883648,14.3573735 C28.3857514,13.8536035 27.5238869,13.6017223 26.4027456,13.6017223 C25.2255473,13.6017223 24.2936125,13.9235705 23.6069135,14.5672766 C22.9202144,15.2109828 22.5348279,16.0086067 22.4507423,16.9601722 L17.4897169,15.9106566 C17.6859166,14.1194744 18.5688021,12.53822 20.1383999,11.1668461 C21.7079978,9.79547215 23.7820781,9.10979548 26.360703,9.10979548 C29.4438416,9.10979548 31.7141187,9.84444906 33.1716024,11.3137783 C34.6290861,12.7831075 35.357817,14.66522 35.357817,16.9601722 L35.357817,27.1194833 C35.357817,28.3509211 35.4419013,29.4424064 35.6100725,30.393972 L30.4808767,30.393972 C30.3407341,29.7782531 30.2706638,28.9526424 30.2706638,27.9171152 C28.9533228,29.9601824 26.9212846,30.9817008 24.1744884,30.9817008 C22.04432,30.9817008 20.3275981,30.3659911 19.0242713,29.1345533 C17.7209446,27.9031155 17.069291,26.4478017 17.069291,24.7685684 Z M25.3516809,26.8256189 C26.669022,26.8256189 27.7551113,26.4547938 28.6099815,25.7131324 C29.4648518,24.971471 29.8922805,23.7470484 29.8922805,22.0398278 L29.8922805,21.116254 L25.2255532,21.8299247 C23.5158127,22.0818097 22.6609553,22.9494005 22.6609553,24.4327234 C22.6609553,25.1044167 22.8991942,25.6711495 23.3756793,26.1329386 C23.8521643,26.5947278 24.5108249,26.8256189 25.3516809,26.8256189 Z M39.2257352,24.6426265 L44.0185903,23.5931109 C44.0746473,24.488702 44.4320058,25.237349 45.0906763,25.8390743 C45.7493468,26.4407996 46.6532534,26.7416577 47.8024232,26.7416577 C48.6713077,26.7416577 49.3439824,26.5457501 49.8204675,26.153929 C50.2969525,25.7621078 50.5351915,25.2723388 50.5351915,24.6846071 C50.5351915,23.6490799 49.7924465,22.9773966 48.3069343,22.6695371 L45.574166,22.0398278 C43.6401973,21.6200194 42.1897425,20.8643757 41.2227581,19.7728741 C40.2557737,18.6813724 39.7722888,17.379986 39.7722888,15.868676 C39.7722888,13.9935321 40.5080268,12.3982843 41.9795247,11.0828848 C43.4510227,9.76748535 45.293871,9.10979548 47.5081251,9.10979548 C48.9095517,9.10979548 50.1427887,9.3126998 51.2078729,9.71851453 C52.2729571,10.1243293 53.0997865,10.6420851 53.6883856,11.2717976 C54.2769848,11.9015101 54.7254346,12.5382099 55.0337485,13.181916 C55.3420623,13.8256222 55.5382591,14.4553252 55.6223447,15.0710441 L50.9556174,16.1205597 C50.8435032,15.3928919 50.5141729,14.7491955 49.9676165,14.189451 C49.4210602,13.6297066 48.6152519,13.3498385 47.5501677,13.3498385 C46.8214259,13.3498385 46.1978004,13.5457462 45.6792725,13.9375673 C45.1607447,14.3293884 44.9014846,14.8191574 44.9014846,15.4068891 C44.9014846,16.4144291 45.5321171,17.0301388 46.7934011,17.2540366 L49.7363823,17.883746 C51.7264081,18.3035543 53.2469332,19.0731914 54.2980032,20.1926803 C55.3490731,21.3121692 55.8746002,22.6555358 55.8746002,24.2228202 C55.8746002,26.0699769 55.1738974,27.6652247 53.7724708,29.0086114 C52.3710442,30.3519981 50.3950623,31.0236814 47.8444658,31.0236814 C46.3869821,31.0236814 45.0836749,30.8067837 43.9345051,30.3729817 C42.7853352,29.9391797 41.8954427,29.3794437 41.2648007,28.6937567 C40.6341587,28.0080698 40.1576808,27.3223931 39.8353527,26.6367061 C39.5130246,25.9510192 39.3098208,25.2863326 39.2257352,24.6426265 Z M80.8557833,9.73950484 L72.145082,18.4294941 L84.0287362,30.393972 L76.4542299,30.393972 L68.5014106,22.4210893 L65.9648215,24.9364909 L65.9648215,30.393972 L60.3731572,30.393972 L60.3731572,0 L65.9648215,0 L65.9648215,17.4219591 L73.7086508,9.73950484 L80.8557833,9.73950484 Z M115.573074,24.3907427 C116.61013,25.42627 117.857381,25.9440258 119.314864,25.9440258 C120.772348,25.9440258 122.012592,25.42627 123.035633,24.3907427 C124.058675,23.3552155 124.570188,21.9138951 124.570188,20.0667384 C124.570188,18.2195817 124.058675,16.7782614 123.035633,15.7427341 C122.012592,14.7072069 120.772348,14.189451 119.314864,14.189451 C117.857381,14.189451 116.617137,14.7072069 115.594095,15.7427341 C114.571054,16.7782614 114.059541,18.2195817 114.059541,20.0667384 C114.059541,21.9138951 114.564047,23.3552155 115.573074,24.3907427 Z M111.536986,12.2163617 C113.611097,10.1453072 116.203697,9.10979548 119.314864,9.10979548 C122.426032,9.10979548 125.011625,10.1453072 127.071722,12.2163617 C129.131819,14.2874162 130.161852,16.9041822 130.161852,20.0667384 C130.161852,23.2292946 129.131819,25.8460607 127.071722,27.9171152 C125.011625,29.9881697 122.426032,31.0236814 119.314864,31.0236814 C116.203697,31.0236814 113.618104,29.9881697 111.558007,27.9171152 C109.49791,25.8460607 108.467877,23.2292946 108.467877,20.0667384 C108.467877,16.9041822 109.490903,14.2874162 111.536986,12.2163617 Z M133.104833,31.5274489 L138.149944,30.1840689 C138.346144,31.331545 138.878678,32.2691029 139.747562,32.9967707 C140.616447,33.7244385 141.695529,34.088267 142.984842,34.088267 C146.65658,34.088267 148.492421,32.1711709 148.492421,28.3369214 L148.492421,26.8256189 C148.015936,27.581274 147.287205,28.210977 146.306206,28.714747 C145.325208,29.2185171 144.134013,29.4703983 142.732586,29.4703983 C139.98579,29.4703983 137.694492,28.518847 135.858623,26.6157158 C134.022754,24.7125847 133.104833,22.319713 133.104833,19.4370291 C133.104833,16.6383068 134.015747,14.2594285 135.837602,12.3003229 C137.659456,10.3412173 139.957762,9.36167922 142.732586,9.36167922 C144.246127,9.36167922 145.507392,9.63455055 146.516419,10.1803014 C147.525446,10.7260522 148.226149,11.3907388 148.618549,12.1743811 L148.618549,9.73950484 L154,9.73950484 L154,28.1689989 C154,31.2755807 153.1031,33.8573632 151.309274,35.9144241 C149.515448,37.971485 146.796721,39 143.153012,39 C140.434244,39 138.15696,38.2723431 136.321091,36.8170075 C134.485223,35.3616719 133.413147,33.5985034 133.104833,31.5274489 Z M143.699566,24.6846071 C145.129021,24.6846071 146.299195,24.2088315 147.210122,23.2572659 C148.121049,22.3057003 148.576506,21.0323008 148.576506,19.4370291 C148.576506,17.8697446 148.107035,16.6103384 147.168079,15.6587729 C146.229124,14.7072073 145.072964,14.2314316 143.699566,14.2314316 C142.270111,14.2314316 141.085923,14.7072073 140.146967,15.6587729 C139.208011,16.6103384 138.73854,17.8697446 138.73854,19.4370291 C138.73854,21.0323008 139.201004,22.3057003 140.125946,23.2572659 C141.050887,24.2088315 142.242082,24.6846071 143.699566,24.6846071 Z" id="letters" fill="#353535"></path>
            <polygon id="check" fill="#2699FB" points="88.5909091 23.2686567 79.8977273 14.6716418 76 18.5373134 88.5909091 31 116 3.86567164 112.102273 0"></polygon>
        </g>
    </g>
</svg>